<?xml version="1.0" standalone="no"?>
<!DOCTYPE svg PUBLIC "-//W3C//DTD SVG 20010904//EN"
 "http://www.w3.org/TR/2001/REC-SVG-20010904/DTD/svg10.dtd">
<svg version="1.0" xmlns="http://www.w3.org/2000/svg"
 width="182.000000pt" height="182.000000pt" viewBox="0 0 182.000000 182.000000"
 preserveAspectRatio="xMidYMid meet">
<metadata>
Created by potrace 1.14, written by Peter Selinger 2001-2017
</metadata>
<g transform="translate(0.000000,182.000000) scale(0.100000,-0.100000)"
fill="#000000" stroke="none">
<path d="M1005 1589 c-33 -12 -62 -24 -65 -27 -3 -4 -17 -13 -32 -21 -27 -14
-125 -108 -152 -146 -13 -18 -14 -9 -14 78 1 54 -1 100 -4 102 -8 8 -138 11
-149 4 -7 -4 -10 -225 -10 -660 0 -360 0 -661 0 -669 1 -12 17 -15 81 -16 74
-1 80 1 81 20 0 12 1 96 1 187 l1 166 41 -4 c44 -4 208 -6 216 -3 3 1 16 3 30
6 61 10 180 66 180 85 0 5 6 9 13 10 30 1 158 193 170 256 2 10 7 25 10 33 22
52 27 247 9 335 -17 87 -43 137 -98 190 -89 87 -197 113 -309 74z m127 -155
c49 -25 86 -78 105 -149 12 -45 10 -211 -4 -264 -39 -150 -137 -251 -270 -279
-45 -9 -96 -6 -198 11 -19 4 -20 11 -19 208 1 197 5 246 21 258 5 3 21 24 38
46 42 57 120 131 155 147 17 7 30 16 30 20 0 21 103 22 142 2z"/>
<path d="M399 1574 c-7 -8 -6 -14 1 -19 6 -3 7 -11 3 -18 -9 -15 -10 -1278 -1
-1299 5 -10 16 -15 28 -13 11 2 20 -2 20 -8 0 -9 2 -9 8 -1 4 6 15 10 24 9 9
-2 18 2 20 8 8 22 2 1332 -5 1344 -9 15 -85 12 -98 -3z"/>
</g>
</svg>
